<?xml version="1.0" standalone="no"?>
<!DOCTYPE svg PUBLIC "-//W3C//DTD SVG 20010904//EN"
 "http://www.w3.org/TR/2001/REC-SVG-20010904/DTD/svg10.dtd">
<svg version="1.0" xmlns="http://www.w3.org/2000/svg"
 width="512.000000pt" height="512.000000pt" viewBox="0 0 512.000000 512.000000"
 preserveAspectRatio="xMidYMid meet">

<g transform="translate(0.000000,512.000000) scale(0.100000,-0.100000)"
fill="#ffffff" stroke="none">
<path d="M1004 3749 c-29 -15 -44 -50 -44 -104 l0 -45 -446 0 c-319 0 -451 -3
-467 -12 -50 -26 -60 -69 -26 -112 l20 -26 460 0 459 0 0 -54 c0 -46 -3 -56
-21 -61 -33 -11 -88 -65 -112 -109 -20 -37 -22 -58 -25 -238 -3 -156 0 -209
12 -250 31 -105 113 -168 219 -168 69 0 120 20 165 63 51 48 65 84 71 172 l6
80 205 3 206 2 34 -52 c50 -76 111 -107 208 -108 l72 0 0 -130 c0 -119 -2
-130 -18 -130 -78 0 -204 -93 -240 -178 -12 -27 -62 -214 -113 -415 l-91 -367
-63 0 c-46 0 -69 -5 -86 -18 -30 -25 -30 -75 0 -105 21 -21 29 -22 210 -22
172 0 191 2 210 19 27 25 28 79 1 106 -14 14 -33 20 -65 20 -34 0 -45 4 -45
15 0 28 160 659 177 698 19 45 67 84 109 92 26 5 32 1 56 -39 33 -56 88 -93
157 -106 70 -13 652 -13 722 0 69 13 124 50 157 106 24 40 30 44 56 39 42 -8
90 -47 109 -92 17 -39 177 -670 177 -698 0 -11 -11 -15 -45 -15 -32 0 -51 -6
-65 -20 -27 -27 -26 -81 1 -106 19 -17 38 -19 210 -19 181 0 189 1 210 22 30
30 30 80 0 105 -17 13 -40 18 -86 18 l-63 0 -91 367 c-51 201 -101 388 -113
415 -36 85 -162 178 -240 178 -16 0 -18 11 -18 130 l0 130 73 0 c96 1 157 32
207 108 l34 52 206 -2 205 -3 6 -80 c6 -88 20 -124 71 -172 95 -91 256 -84
338 15 53 64 62 117 58 340 -3 180 -5 201 -25 238 -24 44 -79 98 -112 109 -18
5 -21 15 -21 61 l0 54 459 0 460 0 20 26 c34 43 24 86 -26 112 -16 9 -148 12
-467 12 l-446 0 0 45 c0 57 -16 91 -49 105 -33 13 -75 0 -90 -29 -6 -11 -11
-42 -11 -70 l0 -50 -459 -3 c-435 -3 -460 -4 -480 -22 -27 -25 -28 -79 -1
-106 19 -19 33 -20 480 -20 l460 0 0 -54 c0 -50 -2 -54 -29 -66 -79 -32 -130
-119 -131 -222 l0 -68 -212 0 -213 0 -23 40 c-30 53 -91 96 -153 109 -69 15
-1309 15 -1378 0 -62 -13 -123 -56 -153 -109 l-23 -40 -212 0 -213 0 0 68 c-1
103 -52 190 -131 222 -27 12 -29 16 -29 66 l0 54 460 0 c447 0 461 1 480 20
27 27 26 81 -1 106 -20 18 -45 19 -480 22 l-459 3 0 53 c0 80 -49 123 -106 95z
m96 -577 c18 -23 20 -41 20 -214 0 -187 0 -189 -25 -213 -40 -41 -105 -33
-130 16 -20 37 -21 354 -3 395 25 54 102 63 138 16z m3055 -13 c21 -40 21
-358 0 -398 -25 -49 -90 -57 -130 -16 -25 24 -25 26 -25 213 0 175 2 191 20
215 36 45 109 38 135 -14z m-921 -123 c57 -24 67 -95 20 -138 -16 -14 -49 -17
-210 -20 -172 -3 -194 -5 -213 -22 -25 -22 -28 -73 -7 -102 11 -14 30 -20 78
-24 l63 -5 0 -177 0 -178 -28 -27 -27 -28 -350 0 -350 0 -27 28 -28 27 0 178
0 177 221 5 c167 4 225 8 237 19 25 20 22 83 -4 107 -20 18 -43 19 -372 22
-314 3 -354 5 -370 20 -47 42 -38 114 17 138 46 20 1301 20 1350 0z"/>
</g>
</svg>
